  0
SECTION
  2
ENTITIES
999
DXF created from EnergyPlus
999
Program Version,EnergyPlus, Version 22.2.0-c249759bad, YMD=2026.05.25 14:30
999
Polygon Action,TRIANGULATE3DFACE
999
Color Scheme,Default
999
Text - True North
  0
TEXT
  8
1
  6
Continuous
 62
  3
 10
      -11.00000
 20
        3.00000
 30
        0.10000
 40
 .25
  1
True North
 41
 0.0
  7
MONOTXT
210
0.0
220
0.0
230
1.0
999
Text - Building Title
  0
TEXT
  8
1
  6
Continuous
 62
  3
 10
      -14.00000
 20
       -1.00000
 30
        0.10000
 40
 .4
  1
Building - 
 41
 0.0
  7
MONOTXT
210
0.0
220
0.0
230
1.0
999
North Arrow Stem
  0
3DFACE
  8
1
 62
  3
 10
      -10.00000
 20
        3.00000
 30
        0.10000
 11
      -10.00000
 21
        3.00000
 31
        0.00000
 12
      -10.00000
 22
        0.00000
 32
        0.00000
 13
      -10.00000
 23
        0.00000
 33
        0.10000
999
North Arrow Head 1
  0
3DFACE
  8
1
 62
  3
 10
      -10.00000
 20
        3.00000
 30
        0.10000
 11
      -10.00000
 21
        3.00000
 31
        0.00000
 12
      -10.50000
 22
        2.13397
 32
        0.00000
 13
      -10.50000
 23
        2.13397
 33
        0.10000
999
North Arrow Head 2
  0
3DFACE
  8
1
 62
  3
 10
      -10.00000
 20
        3.00000
 30
        0.10000
 11
      -10.00000
 21
        3.00000
 31
        0.00000
 12
       -9.50000
 22
        2.13397
 32
        0.00000
 13
       -9.50000
 23
        2.13397
 33
        0.10000
999
North Arrow Side 1
  0
3DFACE
  8
1
 62
  3
 10
      -10.50000
 20
        4.50000
 30
        0.10000
 11
      -10.50000
 21
        4.50000
 31
        0.00000
 12
      -10.50000
 22
        3.50000
 32
        0.00000
 13
      -10.50000
 23
        3.50000
 33
        0.10000
999
North Arrow Side 2
  0
3DFACE
  8
1
 62
  3
 10
      -10.50000
 20
        4.50000
 30
        0.10000
 11
      -10.50000
 21
        4.50000
 31
        0.00000
 12
       -9.50000
 22
        3.50000
 32
        0.00000
 13
       -9.50000
 23
        3.50000
 33
        0.10000
999
North Arrow Side 3
  0
3DFACE
  8
1
 62
  3
 10
       -9.50000
 20
        4.50000
 30
        0.10000
 11
       -9.50000
 21
        4.50000
 31
        0.00000
 12
       -9.50000
 22
        3.50000
 32
        0.00000
 13
       -9.50000
 23
        3.50000
 33
        0.10000
999
Zone Names
999
Zone=1:BLOCK_`ROOM1`_STOREY_0
999
Zone=2:BLOCK_`ROOM2`_STOREY_0
999
BLOCK `ROOM1` STOREY 0:BLOCK `ROOM1` STOREY 0 WALL 0001
  0
3DFACE
  8
BLOCK_`ROOM1`_STOREY_0
 62
 43
 10
        1.00000
 20
        1.00000
 30
        3.00000
 11
        1.00000
 21
        1.00000
 31
        0.00000
 12
        0.00000
 22
        1.00000
 32
        0.00000
 13
        0.00000
 23
        1.00000
 33
        3.00000
999
BLOCK `ROOM1` STOREY 0:DOOR__BLOCK `ROOM1` STOREY 0 WALL 0001
  0
3DFACE
  8
BLOCK_`ROOM1`_STOREY_0
 62
 45
 10
        0.66667
 20
        1.00000
 30
        1.25000
 11
        0.66667
 21
        1.00000
 31
        1.00000
 12
        0.41667
 22
        1.00000
 32
        1.00000
 13
        0.41667
 23
        1.00000
 33
        1.25000
999
BLOCK `ROOM1` STOREY 0:BLOCK `ROOM1` STOREY 0 WALL 0002
  0
3DFACE
  8
BLOCK_`ROOM1`_STOREY_0
 62
 43
 10
        0.00000
 20
        1.00000
 30
        3.00000
 11
        0.00000
 21
        1.00000
 31
        0.00000
 12
        0.00000
 22
        0.00000
 32
        0.00000
 13
        0.00000
 23
        0.00000
 33
        3.00000
999
BLOCK `ROOM1` STOREY 0:BLOCK `ROOM1` STOREY 0 WALL 0003
  0
3DFACE
  8
BLOCK_`ROOM1`_STOREY_0
 62
 43
 10
        0.00000
 20
        0.00000
 30
        3.00000
 11
        0.00000
 21
        0.00000
 31
        0.00000
 12
        1.00000
 22
        0.00000
 32
        0.00000
 13
        1.00000
 23
        0.00000
 33
        3.00000
999
BLOCK `ROOM1` STOREY 0:DOOR__BLOCK `ROOM1` STOREY 0 WALL 0003
  0
3DFACE
  8
BLOCK_`ROOM1`_STOREY_0
 62
 45
 10
        0.33333
 20
        0.00000
 30
        1.25000
 11
        0.33333
 21
        0.00000
 31
        1.00000
 12
        0.58333
 22
        0.00000
 32
        1.00000
 13
        0.58333
 23
        0.00000
 33
        1.25000
999
BLOCK `ROOM1` STOREY 0:BLOCK `ROOM1` STOREY 0 WALL 0004_1
  0
3DFACE
  8
BLOCK_`ROOM1`_STOREY_0
 62
 43
 10
        1.00000
 20
        0.00000
 30
        3.00000
 11
        1.00000
 21
        0.00000
 31
        0.00000
 12
        1.00000
 22
        1.00000
 32
        0.00000
 13
        1.00000
 23
        1.00000
 33
        3.00000
999
BLOCK `ROOM1` STOREY 0:BLOCK `ROOM1` STOREY 0 FLOOR 0001
  0
3DFACE
  8
BLOCK_`ROOM1`_STOREY_0
 62
  8
 10
        1.00000
 20
        1.00000
 30
        0.00000
 11
        1.00000
 21
        0.00000
 31
        0.00000
 12
        0.00000
 22
        0.00000
 32
        0.00000
 13
        0.00000
 23
        1.00000
 33
        0.00000
999
BLOCK `ROOM1` STOREY 0:BLOCK `ROOM1` STOREY 0 ROOF 0001
  0
3DFACE
  8
BLOCK_`ROOM1`_STOREY_0
 62
 15
 10
        1.00000
 20
        0.00000
 30
        3.00000
 11
        1.00000
 21
        1.00000
 31
        3.00000
 12
        0.00000
 22
        1.00000
 32
        3.00000
 13
        0.00000
 23
        0.00000
 33
        3.00000
999
BLOCK `ROOM2` STOREY 0:BLOCK `ROOM2` STOREY 0 WALL 0001
  0
3DFACE
  8
BLOCK_`ROOM2`_STOREY_0
 62
 43
 10
        2.00000
 20
        1.00000
 30
        3.00000
 11
        2.00000
 21
        1.00000
 31
        0.00000
 12
        1.00000
 22
        1.00000
 32
        0.00000
 13
        1.00000
 23
        1.00000
 33
        3.00000
999
BLOCK `ROOM2` STOREY 0:DOOR__BLOCK `ROOM2` STOREY 0 WALL 0001
  0
3DFACE
  8
BLOCK_`ROOM2`_STOREY_0
 62
 45
 10
        1.66667
 20
        1.00000
 30
        1.25000
 11
        1.66667
 21
        1.00000
 31
        1.00000
 12
        1.41667
 22
        1.00000
 32
        1.00000
 13
        1.41667
 23
        1.00000
 33
        1.25000
999
BLOCK `ROOM2` STOREY 0:BLOCK `ROOM2` STOREY 0 WALL 0003
  0
3DFACE
  8
BLOCK_`ROOM2`_STOREY_0
 62
 43
 10
        1.00000
 20
        0.00000
 30
        3.00000
 11
        1.00000
 21
        0.00000
 31
        0.00000
 12
        2.00000
 22
        0.00000
 32
        0.00000
 13
        2.00000
 23
        0.00000
 33
        3.00000
999
BLOCK `ROOM2` STOREY 0:DOOR__BLOCK `ROOM2` STOREY 0 WALL 0003
  0
3DFACE
  8
BLOCK_`ROOM2`_STOREY_0
 62
 45
 10
        1.33333
 20
        0.00000
 30
        1.25000
 11
        1.33333
 21
        0.00000
 31
        1.00000
 12
        1.58333
 22
        0.00000
 32
        1.00000
 13
        1.58333
 23
        0.00000
 33
        1.25000
999
BLOCK `ROOM2` STOREY 0:BLOCK `ROOM2` STOREY 0 WALL 0004
  0
3DFACE
  8
BLOCK_`ROOM2`_STOREY_0
 62
 43
 10
        2.00000
 20
        0.00000
 30
        3.00000
 11
        2.00000
 21
        0.00000
 31
        0.00000
 12
        2.00000
 22
        1.00000
 32
        0.00000
 13
        2.00000
 23
        1.00000
 33
        3.00000
999
BLOCK `ROOM2` STOREY 0:BLOCK `ROOM2` STOREY 0 WALL 0002_1
  0
3DFACE
  8
BLOCK_`ROOM2`_STOREY_0
 62
 43
 10
        1.00000
 20
        1.00000
 30
        3.00000
 11
        1.00000
 21
        1.00000
 31
        0.00000
 12
        1.00000
 22
        0.00000
 32
        0.00000
 13
        1.00000
 23
        0.00000
 33
        3.00000
999
BLOCK `ROOM2` STOREY 0:BLOCK `ROOM2` STOREY 0 FLOOR 0001
  0
3DFACE
  8
BLOCK_`ROOM2`_STOREY_0
 62
  8
 10
        2.00000
 20
        1.00000
 30
        0.00000
 11
        2.00000
 21
        0.00000
 31
        0.00000
 12
        1.00000
 22
        0.00000
 32
        0.00000
 13
        1.00000
 23
        1.00000
 33
        0.00000
999
BLOCK `ROOM2` STOREY 0:BLOCK `ROOM2` STOREY 0 ROOF 0001
  0
3DFACE
  8
BLOCK_`ROOM2`_STOREY_0
 62
 15
 10
        2.00000
 20
        0.00000
 30
        3.00000
 11
        2.00000
 21
        1.00000
 31
        3.00000
 12
        1.00000
 22
        1.00000
 32
        3.00000
 13
        1.00000
 23
        0.00000
 33
        3.00000
  0
ENDSEC
  0
EOF
